<?xml version="1.0" encoding="iso-8859-1"?>
<!-- Generator: Adobe Illustrator 17.1.0, SVG Export Plug-In . SVG Version: 6.00 Build 0)  -->
<!DOCTYPE svg PUBLIC "-//W3C//DTD SVG 1.1//EN" "http://www.w3.org/Graphics/SVG/1.1/DTD/svg11.dtd">
<svg version="1.1" id="Capa_1" xmlns="http://www.w3.org/2000/svg" xmlns:xlink="http://www.w3.org/1999/xlink" x="0px" y="0px"
	 viewBox="0 0 295.342 295.342" style="enable-background:new 0 0 295.342 295.342;" xml:space="preserve">
<path id="XMLID_350_" d="M284.342,22.779H11c-6.075,0-11,4.925-11,11v227.784c0,6.075,4.925,11,11,11h273.342
	c6.075,0,11-4.925,11-11V33.779C295.342,27.704,290.417,22.779,284.342,22.779z M273.342,250.563H22V113.114h28.913l26.339,61.658
	c1.729,4.051,5.71,6.679,10.115,6.679h120.611c4.405,0,8.386-2.628,10.116-6.679l26.334-61.657h28.913V250.563z M273.342,91.114
	h-36.176c-4.405,0-8.386,2.628-10.116,6.679l-26.334,61.657H94.63L68.291,97.793c-1.729-4.051-5.71-6.679-10.115-6.679H22V44.779
	h251.342V91.114z"/>
<g>
</g>
<g>
</g>
<g>
</g>
<g>
</g>
<g>
</g>
<g>
</g>
<g>
</g>
<g>
</g>
<g>
</g>
<g>
</g>
<g>
</g>
<g>
</g>
<g>
</g>
<g>
</g>
<g>
</g>
</svg>
